<svg width="484" height="47" viewBox="0 0 484 47" fill="none" xmlns="http://www.w3.org/2000/svg">
<path d="M98.2738 13.1012C98.5738 13.5342 98.6818 14.2092 98.5988 15.1262C98.5158 16.0432 98.3408 17.0261 98.0738 18.0761C97.8068 19.1261 97.4908 20.1591 97.1238 21.1761C96.7568 22.1931 96.4568 23.0341 96.2238 23.7011C95.6568 25.2341 95.1568 26.6682 94.7238 28.0012C94.2908 29.3342 93.7738 30.8011 93.1738 32.4011C92.9738 32.8681 92.7818 33.3341 92.5988 33.8011C92.4158 34.2681 92.1988 34.6841 91.9488 35.0511C91.6988 35.4181 91.3988 35.7181 91.0488 35.9511C90.6988 36.1841 90.2738 36.3011 89.7738 36.3011C89.2068 36.3011 88.7158 36.1011 88.2988 35.7011C87.8818 35.3011 87.5318 34.8011 87.2488 34.2011C86.9658 33.6011 86.7238 32.9681 86.5238 32.3011C86.3238 31.6341 86.1568 31.0511 86.0238 30.5511C85.5908 29.0841 85.2068 27.7431 84.8738 26.5261C84.5408 25.3091 84.2408 24.2182 83.9738 23.2512C83.6738 24.2182 83.3738 25.2681 83.0738 26.4011C82.7738 27.5341 82.3908 28.8182 81.9238 30.2512C81.7908 30.7512 81.6238 31.3591 81.4238 32.0761C81.2238 32.7931 80.9818 33.4682 80.6988 34.1012C80.4158 34.7342 80.0658 35.2762 79.6488 35.7262C79.2318 36.1762 78.7408 36.3681 78.1738 36.3011C77.3738 36.2681 76.6818 35.9431 76.0988 35.3261C75.5158 34.7091 75.0158 33.9682 74.5988 33.1012C74.1818 32.2342 73.8238 31.3341 73.5238 30.4011C73.2238 29.4681 72.9738 28.6511 72.7738 27.9511C72.5068 27.0511 72.1908 26.0511 71.8238 24.9511C71.4568 23.8511 71.0988 22.7261 70.7488 21.5761C70.3988 20.4261 70.0738 19.2762 69.7738 18.1262C69.4738 16.9762 69.2738 15.9181 69.1738 14.9511C69.1068 14.3181 69.2318 13.7341 69.5488 13.2011C69.8658 12.6681 70.2818 12.2931 70.7988 12.0761C71.3158 11.8591 71.8818 11.8181 72.4988 11.9511C73.1158 12.0841 73.6738 12.4841 74.1738 13.1511C74.4408 13.4841 74.6818 13.9011 74.8988 14.4011C75.1158 14.9011 75.3068 15.4431 75.4738 16.0261C75.6408 16.6091 75.8068 17.2011 75.9738 17.8011C76.1408 18.4011 76.3068 18.9841 76.4738 19.5511C76.8408 20.8181 77.1488 21.8091 77.3988 22.5261C77.6488 23.2431 77.9068 23.9842 78.1738 24.7512C78.4068 23.9842 78.6488 23.2431 78.8988 22.5261C79.1488 21.8091 79.4568 20.8181 79.8238 19.5511C79.9568 19.1511 80.1158 18.6931 80.2988 18.1761C80.4818 17.6591 80.6818 17.1681 80.8988 16.7011C81.1158 16.2341 81.3658 15.7932 81.6488 15.3762C81.9318 14.9592 82.2408 14.6511 82.5738 14.4511C83.3068 13.9511 83.9738 13.8261 84.5738 14.0761C85.1738 14.3261 85.6908 14.7512 86.1238 15.3512C86.5568 15.9512 86.9318 16.6431 87.2488 17.4261C87.5658 18.2091 87.8238 18.9181 88.0238 19.5511C88.2238 20.2181 88.4068 20.7931 88.5738 21.2761C88.7408 21.7591 88.8908 22.2012 89.0238 22.6012C89.1568 23.0012 89.2818 23.3842 89.3988 23.7512C89.5158 24.1182 89.6408 24.5011 89.7738 24.9011C89.9068 24.5011 90.0318 24.1182 90.1488 23.7512C90.2658 23.3842 90.3908 23.0012 90.5238 22.6012C90.6568 22.2012 90.8068 21.7591 90.9738 21.2761C91.1408 20.7931 91.3238 20.2181 91.5238 19.5511C91.6568 19.1181 91.7988 18.6181 91.9488 18.0511C92.0988 17.4841 92.2568 16.9091 92.4238 16.3261C92.5908 15.7431 92.7658 15.1841 92.9488 14.6511C93.1318 14.1181 93.3408 13.6681 93.5738 13.3011C93.8068 12.9341 94.1238 12.6262 94.5238 12.3762C94.9238 12.1262 95.3408 11.9761 95.7738 11.9261C96.2068 11.8761 96.6488 11.9342 97.0988 12.1012C97.5488 12.2682 97.9408 12.6012 98.2738 13.1012Z" fill="white"/>
<path d="M105.026 14.5521C106.026 14.0521 107.076 13.6941 108.176 13.4771C109.276 13.2601 110.368 13.2101 111.451 13.3271C112.534 13.4441 113.576 13.7271 114.576 14.1771C115.576 14.6271 116.509 15.2691 117.376 16.1021C118.243 16.9691 118.909 17.9191 119.376 18.9521C119.843 19.9851 120.176 21.1351 120.376 22.4021C120.509 23.2691 120.726 24.0691 121.026 24.8021C121.326 25.5351 121.651 26.2691 122.001 27.0021C122.351 27.7351 122.684 28.4691 123.001 29.2021C123.318 29.9351 123.576 30.7021 123.776 31.5021C123.943 32.2691 123.884 33.0101 123.601 33.7271C123.318 34.4441 122.743 34.8851 121.876 35.0521C121.376 35.1521 120.901 35.1101 120.451 34.9271C120.001 34.7441 119.593 34.4771 119.226 34.1271C118.859 33.7771 118.534 33.3941 118.251 32.9771C117.968 32.5601 117.709 32.1691 117.476 31.8021C116.709 32.8021 115.876 33.5771 114.976 34.1271C114.076 34.6771 112.993 35.0351 111.726 35.2021C110.659 35.3351 109.643 35.3691 108.676 35.3021C107.709 35.2351 106.676 35.0521 105.576 34.7521C104.143 34.3851 102.968 33.7441 102.051 32.8271C101.134 31.9101 100.434 30.8441 99.951 29.6271C99.468 28.4101 99.209 27.1021 99.176 25.7021C99.143 24.3021 99.309 22.9191 99.676 21.5521C100.143 19.7521 100.843 18.2851 101.776 17.1521C102.709 16.0191 103.793 15.1521 105.026 14.5521ZM106.276 20.4021C105.809 20.8691 105.443 21.4191 105.176 22.0521C104.909 22.6851 104.751 23.3521 104.701 24.0521C104.651 24.7521 104.709 25.4521 104.876 26.1521C105.043 26.8521 105.309 27.4691 105.676 28.0021C106.009 28.4691 106.576 28.8601 107.376 29.1771C108.176 29.4941 109.009 29.6851 109.876 29.7521C110.876 29.8191 111.751 29.5521 112.501 28.9521C113.251 28.3521 113.818 27.5941 114.201 26.6771C114.584 25.7601 114.759 24.7771 114.726 23.7271C114.693 22.6771 114.409 21.7191 113.876 20.8521C113.476 20.2191 112.951 19.7521 112.301 19.4521C111.651 19.1521 110.959 18.9941 110.226 18.9771C109.493 18.9601 108.768 19.0771 108.051 19.3271C107.334 19.5771 106.743 19.9351 106.276 20.4021Z" fill="white"/>
<path d="M146.171 26.1516C146.171 27.2186 146.146 28.3686 146.096 29.6016C146.046 30.8346 145.988 31.9845 145.921 33.0515C145.921 34.0515 145.871 35.0515 145.771 36.0515C145.704 36.9185 145.571 37.8596 145.371 38.8766C145.171 39.8936 144.888 40.8345 144.521 41.7015C144.054 42.8345 143.421 43.8096 142.621 44.6266C141.821 45.4436 140.788 46.0346 139.521 46.4016C138.454 46.6686 137.454 46.8435 136.521 46.9265C135.588 47.0095 134.588 46.9846 133.521 46.8516C132.821 46.7516 132.071 46.5596 131.271 46.2766C130.471 45.9936 129.721 45.6345 129.021 45.2015C128.321 44.7685 127.704 44.2595 127.171 43.6765C126.638 43.0935 126.271 42.4345 126.071 41.7015C125.838 40.8015 125.829 40.0186 126.046 39.3516C126.263 38.6846 126.604 38.2016 127.071 37.9016C127.538 37.6016 128.088 37.5516 128.721 37.7516C129.354 37.9516 129.954 38.4685 130.521 39.3015C130.921 39.9015 131.504 40.3846 132.271 40.7516C133.038 41.1186 133.854 41.3346 134.721 41.4016C135.588 41.4686 136.429 41.3595 137.246 41.0765C138.063 40.7935 138.704 40.3016 139.171 39.6016C139.504 39.1016 139.746 38.3845 139.896 37.4515C140.046 36.5185 140.138 35.6015 140.171 34.7015C138.471 35.4015 136.729 35.6596 134.946 35.4766C133.163 35.2936 131.546 34.7435 130.096 33.8265C128.646 32.9095 127.479 31.6766 126.596 30.1266C125.713 28.5766 125.338 26.8186 125.471 24.8516C125.571 23.1516 125.929 21.5515 126.546 20.0515C127.163 18.5515 128.188 17.3015 129.621 16.3015C130.788 15.5015 132.104 14.9766 133.571 14.7266C135.038 14.4766 136.454 14.3516 137.821 14.3516H140.196C140.979 14.3516 141.704 14.4516 142.371 14.6516C143.038 14.8516 143.638 15.1846 144.171 15.6516C144.704 16.1186 145.104 16.8015 145.371 17.7015C145.804 19.1015 146.046 20.4846 146.096 21.8516C146.146 23.2186 146.171 24.6516 146.171 26.1516ZM136.521 30.3015C136.854 30.3015 137.179 30.2685 137.496 30.2015C137.813 30.1345 138.121 30.0515 138.421 29.9515C138.988 29.7515 139.413 29.4846 139.696 29.1516C139.979 28.8186 140.171 28.4436 140.271 28.0266C140.371 27.6096 140.413 27.1516 140.396 26.6516C140.379 26.1516 140.371 25.6346 140.371 25.1016C140.371 24.6686 140.363 24.1846 140.346 23.6516C140.329 23.1186 140.288 22.6096 140.221 22.1266C140.154 21.6436 140.054 21.2186 139.921 20.8516C139.788 20.4846 139.588 20.2516 139.321 20.1516C138.854 20.0186 138.321 19.9266 137.721 19.8766C137.121 19.8266 136.521 19.8266 135.921 19.8766C135.321 19.9266 134.746 20.0436 134.196 20.2266C133.646 20.4096 133.188 20.6515 132.821 20.9515C132.321 21.3845 131.938 21.9185 131.671 22.5515C131.404 23.1845 131.246 23.8515 131.196 24.5515C131.146 25.2515 131.196 25.9346 131.346 26.6016C131.496 27.2686 131.771 27.8686 132.171 28.4016C132.638 29.0686 133.271 29.5516 134.071 29.8516C134.871 30.1516 135.688 30.3015 136.521 30.3015Z" fill="white"/>
<path d="M154.671 12.9975C155.771 12.4645 156.921 12.0805 158.121 11.8475C159.321 11.6145 160.513 11.5645 161.696 11.6975C162.879 11.8305 164.029 12.1475 165.146 12.6475C166.263 13.1475 167.288 13.8475 168.221 14.7475C168.988 15.5145 169.654 16.4395 170.221 17.5225C170.788 18.6055 171.204 19.6645 171.471 20.6975C172.038 22.5305 172.121 24.3805 171.721 26.2475C171.321 28.1145 170.638 29.8475 169.671 31.4475C169.204 32.1805 168.629 32.8395 167.946 33.4225C167.263 34.0055 166.538 34.4805 165.771 34.8475C164.771 35.3145 163.688 35.6395 162.521 35.8225C161.354 36.0055 160.221 36.0475 159.121 35.9475C157.121 35.8475 155.363 35.3475 153.846 34.4475C152.329 33.5475 151.113 32.3975 150.196 30.9975C149.279 29.5975 148.679 28.0055 148.396 26.2225C148.113 24.4395 148.221 22.6145 148.721 20.7475C149.254 18.7475 150.029 17.1225 151.046 15.8725C152.063 14.6225 153.271 13.6645 154.671 12.9975ZM156.171 19.6975C155.671 20.1645 155.288 20.7475 155.021 21.4475C154.754 22.1475 154.588 22.8725 154.521 23.6225C154.454 24.3725 154.513 25.1225 154.696 25.8725C154.879 26.6225 155.171 27.2975 155.571 27.8975C155.904 28.3975 156.504 28.8145 157.371 29.1475C158.238 29.4805 159.138 29.6805 160.071 29.7475C161.138 29.8145 162.071 29.5225 162.871 28.8725C163.671 28.2225 164.279 27.4145 164.696 26.4475C165.113 25.4805 165.304 24.4305 165.271 23.2975C165.238 22.1645 164.938 21.1305 164.371 20.1975C163.971 19.5305 163.413 19.0395 162.696 18.7225C161.979 18.4055 161.229 18.2395 160.446 18.2225C159.663 18.2055 158.888 18.3225 158.121 18.5725C157.354 18.8225 156.704 19.1975 156.171 19.6975Z" fill="white"/>
<path d="M203.073 23.9497C203.14 25.0167 203.173 26.0248 203.173 26.9748C203.173 27.9248 203.14 28.9328 203.073 29.9998V31.3498C203.073 31.8498 203.04 32.3327 202.973 32.7997C202.906 33.2667 202.79 33.6998 202.623 34.0998C202.456 34.4998 202.206 34.8167 201.873 35.0497C201.473 35.3167 201.023 35.4917 200.523 35.5747C200.023 35.6577 199.556 35.6328 199.123 35.4998C198.69 35.3668 198.315 35.1168 197.998 34.7498C197.681 34.3828 197.506 33.8667 197.473 33.1997C197.373 31.6667 197.323 30.1328 197.323 28.5998C197.323 27.8328 197.315 27.0997 197.298 26.3997C197.281 25.6997 197.29 24.7167 197.323 23.4497C197.323 22.8167 197.273 22.0917 197.173 21.2747C197.073 20.4577 196.823 19.8827 196.423 19.5497C196.123 19.2827 195.79 19.1247 195.423 19.0747C195.056 19.0247 194.698 19.0667 194.348 19.1997C193.998 19.3327 193.69 19.5747 193.423 19.9247C193.156 20.2747 192.973 20.7167 192.873 21.2497C192.873 21.6827 192.865 22.1247 192.848 22.5747C192.831 23.0247 192.84 23.4498 192.873 23.8498C192.906 24.9168 192.923 25.9247 192.923 26.8747C192.923 27.8247 192.906 28.8327 192.873 29.8997C192.84 30.3327 192.831 30.7997 192.848 31.2997C192.865 31.7997 192.856 32.2917 192.823 32.7747C192.79 33.2577 192.698 33.6998 192.548 34.0998C192.398 34.4998 192.14 34.8167 191.773 35.0497C191.373 35.3167 190.948 35.4747 190.498 35.5247C190.048 35.5747 189.631 35.5077 189.248 35.3247C188.865 35.1417 188.531 34.8497 188.248 34.4497C187.965 34.0497 187.806 33.5168 187.773 32.8498C187.706 32.0828 187.665 31.3748 187.648 30.7248C187.631 30.0748 187.623 29.3827 187.623 28.6497C187.623 27.8827 187.64 27.0917 187.673 26.2747C187.706 25.4577 187.69 24.6667 187.623 23.8997C187.623 23.6667 187.615 23.3917 187.598 23.0747C187.581 22.7577 187.565 22.4328 187.548 22.0998C187.531 21.7668 187.498 21.4417 187.448 21.1247C187.398 20.8077 187.323 20.5498 187.223 20.3498C186.956 19.8828 186.481 19.5827 185.798 19.4497C185.115 19.3167 184.54 19.3668 184.073 19.5998C183.606 19.8328 183.256 20.1327 183.023 20.4997C182.79 20.8667 182.623 21.2667 182.523 21.6997C182.423 22.1327 182.373 22.5917 182.373 23.0747V24.4497C182.373 26.6167 182.381 28.4917 182.398 30.0747C182.415 31.6577 182.24 32.9327 181.873 33.8997C181.706 34.3997 181.365 34.7827 180.848 35.0497C180.331 35.3167 179.781 35.4497 179.198 35.4497C178.615 35.4497 178.073 35.3167 177.573 35.0497C177.073 34.7827 176.74 34.3667 176.573 33.7997C176.473 33.4327 176.381 32.9078 176.298 32.2248C176.215 31.5418 176.156 30.7827 176.123 29.9497C176.09 29.1167 176.073 28.2747 176.073 27.4247V17.8997C176.04 17.1327 176.023 16.2997 176.023 15.3997C176.023 14.4997 176.156 13.6827 176.423 12.9497C176.656 12.3167 177.023 11.9078 177.523 11.7248C178.023 11.5418 178.54 11.4667 179.073 11.4997C179.673 11.4997 180.148 11.6578 180.498 11.9748C180.848 12.2918 181.106 12.6747 181.273 13.1247C181.44 13.5747 181.54 14.0747 181.573 14.6247C181.606 15.1747 181.64 15.6997 181.673 16.1997C182.04 15.3667 182.481 14.6747 182.998 14.1247C183.515 13.5747 184.256 13.2167 185.223 13.0497C187.69 12.5827 189.656 13.2167 191.123 14.9497C191.79 14.2827 192.64 13.7327 193.673 13.2997C194.473 12.9997 195.29 12.8577 196.123 12.8747C196.956 12.8917 197.748 13.0498 198.498 13.3498C199.248 13.6498 199.931 14.0827 200.548 14.6497C201.165 15.2167 201.656 15.8997 202.023 16.6997C202.523 17.7667 202.806 18.9497 202.873 20.2497C202.94 21.5497 203.006 22.7827 203.073 23.9497Z" fill="white"/>
<path d="M227.726 23.7001C227.659 24.8001 227.593 25.9081 227.526 27.0251C227.459 28.1421 227.284 29.2171 227.001 30.2501C226.718 31.2831 226.284 32.2171 225.701 33.0501C225.118 33.8831 224.293 34.5501 223.226 35.0501C222.293 35.5171 221.293 35.8421 220.226 36.0251C219.159 36.2081 218.093 36.2831 217.026 36.2501C215.959 36.2171 214.926 36.0581 213.926 35.7751C212.926 35.4921 212.026 35.1001 211.226 34.6001C210.426 34.1001 209.776 33.4501 209.276 32.6501C208.776 31.8501 208.384 30.9831 208.101 30.0501C207.818 29.1171 207.626 28.1501 207.526 27.1501C207.426 26.1501 207.359 25.2171 207.326 24.3501C207.193 22.0501 207.193 19.7831 207.326 17.5501V16.0751C207.326 15.5251 207.368 14.9831 207.451 14.4501C207.534 13.9171 207.676 13.4251 207.876 12.9751C208.076 12.5251 208.409 12.1831 208.876 11.9501C209.876 11.4171 210.801 11.3831 211.651 11.8501C212.501 12.3171 213.009 13.2831 213.176 14.7501C213.276 15.5171 213.318 16.3671 213.301 17.3001C213.284 18.2331 213.309 19.0831 213.376 19.8501C213.409 20.9831 213.443 22.2081 213.476 23.5251C213.509 24.8421 213.701 26.0171 214.051 27.0501C214.401 28.0831 214.984 28.8581 215.801 29.3751C216.618 29.8921 217.843 29.9171 219.476 29.4501C220.243 29.2171 220.751 28.6331 221.001 27.7001C221.251 26.7671 221.376 25.3831 221.376 23.5501C221.376 22.7501 221.359 21.8671 221.326 20.9001C221.293 19.9331 221.276 18.9751 221.276 18.0251C221.276 17.0751 221.301 16.1921 221.351 15.3751C221.401 14.5581 221.493 13.9331 221.626 13.5001C221.793 12.9001 222.143 12.4501 222.676 12.1501C223.209 11.8501 223.776 11.6921 224.376 11.6751C224.976 11.6581 225.543 11.7831 226.076 12.0501C226.609 12.3171 226.976 12.7501 227.176 13.3501C227.376 13.8831 227.518 14.5581 227.601 15.3751C227.684 16.1921 227.743 17.0751 227.776 18.0251C227.809 18.9751 227.818 19.9421 227.801 20.9251C227.784 21.9081 227.759 22.8331 227.726 23.7001Z" fill="white"/>
<path d="M246.87 17.7474C246.87 16.9804 246.862 16.1643 246.845 15.2973C246.828 14.4303 246.97 13.6473 247.27 12.9473C247.537 12.3143 247.978 11.8553 248.595 11.5723C249.212 11.2893 249.82 11.2303 250.42 11.3973C251.02 11.4973 251.487 11.6803 251.82 11.9473C252.153 12.2143 252.395 12.5224 252.545 12.8724C252.695 13.2224 252.787 13.6223 252.82 14.0723C252.853 14.5223 252.887 14.9643 252.92 15.3973C253.253 14.7973 253.67 14.3143 254.17 13.9473C254.67 13.5803 255.187 13.2803 255.72 13.0473C256.253 12.8143 256.762 12.6473 257.245 12.5473C257.728 12.4473 258.103 12.3973 258.37 12.3973C259.637 12.3973 260.895 12.6724 262.145 13.2224C263.395 13.7724 264.437 14.5473 265.27 15.5473C265.737 16.1473 266.095 16.7723 266.345 17.4223C266.595 18.0723 266.778 18.7473 266.895 19.4473C267.012 20.1473 267.087 20.8553 267.12 21.5723C267.153 22.2893 267.187 23.0144 267.22 23.7474C267.387 25.8804 267.387 27.9974 267.22 30.0974C267.187 30.5304 267.17 31.0304 267.17 31.5974C267.17 32.1644 267.128 32.7223 267.045 33.2723C266.962 33.8223 266.812 34.3054 266.595 34.7224C266.378 35.1394 266.02 35.3974 265.52 35.4974C264.82 35.6644 264.245 35.7054 263.795 35.6224C263.345 35.5394 262.987 35.3803 262.72 35.1473C262.453 34.9143 262.253 34.6144 262.12 34.2474C261.987 33.8804 261.87 33.4644 261.77 32.9974C261.703 32.6304 261.645 32.2054 261.595 31.7224C261.545 31.2394 261.512 30.7474 261.495 30.2474C261.478 29.7474 261.462 29.2553 261.445 28.7723C261.428 28.2893 261.42 27.8473 261.42 27.4473C261.42 26.8143 261.403 26.1144 261.37 25.3474C261.337 24.5804 261.337 23.8643 261.37 23.1973C261.37 21.6303 260.962 20.4394 260.145 19.6224C259.328 18.8054 258.22 18.4644 256.82 18.5974C255.753 18.7304 254.82 19.1554 254.02 19.8724C253.22 20.5894 252.837 21.5143 252.87 22.6473V23.8474C252.87 24.2144 252.862 24.5803 252.845 24.9473C252.828 25.3143 252.82 25.7143 252.82 26.1473V31.0723C252.82 32.2893 252.67 33.2803 252.37 34.0473C252.103 34.8473 251.653 35.3973 251.02 35.6973C250.387 35.9973 249.637 35.9143 248.77 35.4473C248.403 35.2473 248.112 34.9724 247.895 34.6224C247.678 34.2724 247.512 33.8974 247.395 33.4974C247.278 33.0974 247.203 32.6893 247.17 32.2723C247.137 31.8553 247.103 31.4644 247.07 31.0974C246.97 29.9974 246.912 28.9723 246.895 28.0223C246.878 27.0723 246.87 26.0473 246.87 24.9473V17.7474Z" fill="white"/>
<path d="M280.048 7.6997C281.698 6.8997 283.423 6.32472 285.223 5.97472C287.023 5.62472 288.81 5.54971 290.585 5.74971C292.36 5.94971 294.085 6.4247 295.76 7.1747C297.435 7.9247 298.972 8.9747 300.373 10.3247C301.523 11.4747 302.523 12.8627 303.373 14.4877C304.223 16.1127 304.848 17.6997 305.248 19.2497C306.098 21.9997 306.223 24.7747 305.623 27.5747C305.023 30.3747 303.998 32.9747 302.548 35.3747C301.848 36.4747 300.986 37.4627 299.961 38.3377C298.936 39.2127 297.848 39.9247 296.699 40.4747C295.199 41.1747 293.574 41.6627 291.824 41.9377C290.074 42.2127 288.374 42.2757 286.724 42.1257C283.724 41.9757 281.087 41.2257 278.812 39.8757C276.537 38.5257 274.712 36.8007 273.337 34.7007C271.962 32.6007 271.062 30.2137 270.637 27.5377C270.212 24.8627 270.375 22.1257 271.125 19.3257C271.925 16.3257 273.087 13.8877 274.613 12.0137C276.138 10.1387 277.95 8.70171 280.051 7.70171L280.048 7.6997ZM282.298 17.7497C281.548 18.4497 280.973 19.3247 280.573 20.3747C280.173 21.4247 279.923 22.5117 279.823 23.6367C279.723 24.7617 279.811 25.8867 280.085 27.0117C280.36 28.1367 280.797 29.1497 281.397 30.0497C281.897 30.7997 282.797 31.4247 284.097 31.9247C285.397 32.4247 286.747 32.7247 288.147 32.8247C289.747 32.9247 291.147 32.4877 292.347 31.5127C293.547 30.5377 294.46 29.3247 295.085 27.8757C295.71 26.4257 295.997 24.8507 295.947 23.1507C295.897 21.4507 295.447 19.9007 294.597 18.5007C293.997 17.5007 293.159 16.7627 292.085 16.2877C291.01 15.8127 289.885 15.5627 288.71 15.5377C287.535 15.5127 286.372 15.6877 285.222 16.0627C284.072 16.4377 283.097 17.0007 282.297 17.7507L282.298 17.7497Z" fill="#FFAD33"/>
<path d="M331.846 14.5521C332.846 14.0521 333.896 13.6941 334.996 13.4771C336.096 13.2601 337.188 13.2101 338.271 13.3271C339.354 13.4441 340.396 13.7271 341.396 14.1771C342.396 14.6271 343.329 15.2691 344.196 16.1021C345.063 16.9691 345.729 17.9191 346.196 18.9521C346.663 19.9851 346.996 21.1351 347.196 22.4021C347.329 23.2691 347.546 24.0691 347.846 24.8021C348.146 25.5351 348.471 26.2691 348.821 27.0021C349.171 27.7351 349.504 28.4691 349.821 29.2021C350.138 29.9351 350.396 30.7021 350.596 31.5021C350.763 32.2691 350.704 33.0101 350.421 33.7271C350.138 34.4441 349.563 34.8851 348.696 35.0521C348.196 35.1521 347.721 35.1101 347.271 34.9271C346.821 34.7441 346.413 34.4771 346.046 34.1271C345.679 33.7771 345.354 33.3941 345.071 32.9771C344.788 32.5601 344.529 32.1691 344.296 31.8021C343.529 32.8021 342.696 33.5771 341.796 34.1271C340.896 34.6771 339.813 35.0351 338.546 35.2021C337.479 35.3351 336.463 35.3691 335.496 35.3021C334.529 35.2351 333.496 35.0521 332.396 34.7521C330.963 34.3851 329.788 33.7441 328.871 32.8271C327.954 31.9101 327.254 30.8441 326.771 29.6271C326.288 28.4101 326.029 27.1021 325.996 25.7021C325.963 24.3021 326.129 22.9191 326.496 21.5521C326.963 19.7521 327.663 18.2851 328.596 17.1521C329.529 16.0191 330.613 15.1521 331.846 14.5521ZM333.096 20.4021C332.629 20.8691 332.263 21.4191 331.996 22.0521C331.729 22.6851 331.571 23.3521 331.521 24.0521C331.471 24.7521 331.529 25.4521 331.696 26.1521C331.863 26.8521 332.129 27.4691 332.496 28.0021C332.829 28.4691 333.396 28.8601 334.196 29.1771C334.996 29.4941 335.829 29.6851 336.696 29.7521C337.696 29.8191 338.571 29.5521 339.321 28.9521C340.071 28.3521 340.638 27.5941 341.021 26.6771C341.404 25.7601 341.579 24.7771 341.546 23.7271C341.513 22.6771 341.229 21.7191 340.696 20.8521C340.296 20.2191 339.771 19.7521 339.121 19.4521C338.471 19.1521 337.779 18.9941 337.046 18.9771C336.313 18.9601 335.588 19.0771 334.871 19.3271C334.154 19.5771 333.563 19.9351 333.096 20.4021Z" fill="white"/>
<path d="M364.7 24.1C365.433 24.867 365.975 25.425 366.325 25.775C366.675 26.125 366.925 26.383 367.075 26.55C367.225 26.717 367.333 26.817 367.4 26.85C367.467 26.883 367.583 26.983 367.75 27.15C367.917 27.317 368.183 27.575 368.55 27.925C368.917 28.275 369.467 28.833 370.2 29.6C370.8 30.2 371.292 30.892 371.675 31.675C372.058 32.458 372.017 33.3 371.55 34.2C371.283 34.667 370.983 34.992 370.65 35.175C370.317 35.358 369.958 35.433 369.575 35.4C369.192 35.367 368.792 35.25 368.375 35.05C367.958 34.85 367.55 34.6 367.15 34.3C366.383 33.733 365.65 33.075 364.95 32.325C364.25 31.575 363.683 31 363.25 30.6C362.95 30.3 362.767 30.1 362.7 30C362.633 29.933 362.567 29.875 362.5 29.825C362.433 29.775 362.367 29.717 362.3 29.65C362.067 29.417 361.817 29.183 361.55 28.95C361.283 28.717 361.017 28.467 360.75 28.2V30.15C360.75 30.517 360.767 30.783 360.8 30.95C360.8 31.283 360.783 31.533 360.75 31.7C360.65 32.067 360.6 32.417 360.6 32.75C360.567 32.917 360.533 33.075 360.5 33.225C360.467 33.375 360.417 33.533 360.35 33.7C360.317 33.767 360.292 33.817 360.275 33.85C360.258 33.883 360.25 33.933 360.25 34C360.217 34.067 360.133 34.233 360.1 34.3C359.933 34.633 359.667 34.95 359.3 35.25C358.667 35.617 357.883 35.717 356.95 35.55C356.45 35.45 356.067 35.267 355.8 35C355.5 34.8 355.3 34.517 355.2 34.15C355.133 33.983 355.075 33.808 355.025 33.625C354.975 33.442 354.917 33.267 354.85 33.1C354.783 32.933 354.75 32.775 354.75 32.625V3.19998C354.75 2.99998 354.767 2.80001 354.8 2.60001C354.833 2.40001 354.875 2.20799 354.925 2.02499C354.975 1.84199 355.033 1.667 355.1 1.5C355.233 1.167 355.4 0.899997 355.6 0.699997C355.767 0.532997 355.942 0.407997 356.125 0.324997C356.308 0.241997 356.483 0.166991 356.65 0.0999908C356.817 0.0669908 357.008 0.0419939 357.225 0.0249939C357.442 0.0079939 357.65 0 357.85 0C358.317 0 358.783 0.132994 359.25 0.399994C359.683 0.699994 360 1.08299 360.2 1.54999C360.467 2.18299 360.6 2.79999 360.6 3.39999C360.633 3.73299 360.667 4.24199 360.7 4.92499C360.733 5.60799 360.75 6.11698 360.75 6.44998V6.64999C360.783 7.74999 360.8 8.79999 360.8 9.79999V13.05C360.767 14.217 360.75 15.325 360.75 16.375V20.05C361.017 19.783 361.283 19.533 361.55 19.3C361.817 19.067 362.067 18.817 362.3 18.55C362.433 18.45 362.567 18.333 362.7 18.2L363.25 17.65C363.683 17.217 364.25 16.625 364.95 15.875C365.65 15.125 366.383 14.467 367.15 13.9C367.983 13.3 368.792 12.933 369.575 12.8C370.358 12.667 371.017 13.067 371.55 14C372.017 14.9 372.058 15.742 371.675 16.525C371.292 17.308 370.8 18.033 370.2 18.7C369.467 19.467 368.917 20.025 368.55 20.375C368.183 20.725 367.917 20.975 367.75 21.125C367.583 21.275 367.467 21.367 367.4 21.4C367.333 21.433 367.225 21.525 367.075 21.675C366.925 21.825 366.675 22.075 366.325 22.425C365.975 22.775 365.433 23.333 364.7 24.1Z" fill="white"/>
<path d="M382.252 16.6489C382.252 17.5819 382.26 18.6319 382.277 19.7989C382.294 20.9659 382.302 22.1739 382.302 23.4239V27.1239C382.302 28.3409 382.285 29.4659 382.252 30.4989C382.219 30.9989 382.169 31.5409 382.102 32.1239C382.035 32.7069 381.902 33.2489 381.702 33.7489C381.502 34.2489 381.194 34.6569 380.777 34.9739C380.36 35.2909 379.802 35.4319 379.102 35.3989C378.069 35.3319 377.327 34.8819 376.877 34.0489C376.427 33.2159 376.169 32.0489 376.102 30.5489C376.102 29.7819 376.094 28.8989 376.077 27.8989C376.06 26.8989 376.044 25.8819 376.027 24.8489C376.01 23.8159 376.002 22.8069 376.002 21.8239V19.1489C376.002 18.6819 375.994 18.1159 375.977 17.4489C375.96 16.7819 375.969 16.0989 376.002 15.3989C376.035 14.6989 376.119 14.0239 376.252 13.3739C376.385 12.7239 376.602 12.1819 376.902 11.7489C377.135 11.4819 377.469 11.2739 377.902 11.1239C378.335 10.9739 378.794 10.8989 379.277 10.8989C379.76 10.8989 380.227 10.9819 380.677 11.1489C381.127 11.3159 381.452 11.5489 381.652 11.8489C381.785 12.0489 381.885 12.3319 381.952 12.6989C382.019 13.0659 382.077 13.4739 382.127 13.9239C382.177 14.3739 382.21 14.8409 382.227 15.3239C382.244 15.8069 382.252 16.2489 382.252 16.6489ZM380.352 6.54892C379.319 6.81592 378.46 6.70693 377.777 6.22393C377.094 5.74093 376.669 5.01592 376.502 4.04892C376.369 3.34892 376.419 2.73191 376.652 2.19891C376.885 1.66591 377.235 1.25692 377.702 0.973919C378.169 0.690919 378.702 0.565919 379.302 0.598919C379.902 0.631919 380.502 0.865916 381.102 1.29892C381.669 1.69892 382.077 2.16591 382.327 2.69891C382.577 3.23191 382.66 3.74893 382.577 4.24893C382.494 4.74893 382.269 5.20693 381.902 5.62393C381.535 6.04093 381.019 6.34892 380.352 6.54892Z" fill="white"/>
<path d="M388.245 3.99979C388.312 2.79979 388.687 1.83278 389.37 1.09978C390.053 0.366778 391.028 0.166787 392.295 0.499787C392.895 0.666787 393.337 0.916787 393.62 1.24979C393.903 1.58279 394.103 1.97478 394.22 2.42478C394.337 2.87478 394.395 3.35779 394.395 3.87479V12.2998C394.362 12.5668 394.353 12.8248 394.37 13.0748C394.387 13.3248 394.395 13.5498 394.395 13.7498V14.3998H396.72C397.07 14.3998 397.378 14.3828 397.645 14.3498C399.478 14.3498 401.053 14.6168 402.37 15.1498C403.687 15.6828 404.753 16.4248 405.57 17.3748C406.387 18.3248 406.987 19.4578 407.37 20.7748C407.753 22.0918 407.928 23.5328 407.895 25.0998C407.862 26.9668 407.562 28.5668 406.995 29.8998C406.428 31.2328 405.628 32.3328 404.595 33.1998C403.562 34.0668 402.32 34.7078 400.87 35.1248C399.42 35.5418 397.795 35.7498 395.995 35.7498C393.928 35.7498 392.362 35.7328 391.295 35.6998C390.228 35.6668 389.47 35.3668 389.02 34.7998C388.57 34.2328 388.328 33.2498 388.295 31.8498C388.262 30.4498 388.245 28.3998 388.245 25.6998C388.245 23.0998 388.253 20.5328 388.27 17.9998C388.287 15.4668 388.278 12.9168 388.245 10.3498C388.245 10.0168 388.237 9.66678 388.22 9.29978C388.203 8.93278 388.195 8.51678 388.195 8.04978V6.37479C388.195 5.72479 388.212 4.93279 388.245 3.99979ZM397.595 30.1498C399.428 30.0498 400.695 29.5498 401.395 28.6498C401.762 28.1498 402.045 27.5498 402.245 26.8498C402.445 26.1498 402.528 25.4498 402.495 24.7498C402.462 24.0498 402.32 23.3748 402.07 22.7248C401.82 22.0748 401.428 21.5328 400.895 21.0998C400.428 20.6998 399.962 20.4078 399.495 20.2248C399.028 20.0418 398.545 19.9248 398.045 19.8748C397.545 19.8248 397.012 19.8078 396.445 19.8248C395.878 19.8418 395.228 19.8668 394.495 19.8998V25.8998L394.395 30.0498C394.728 30.0828 395.078 30.1168 395.445 30.1498C396.078 30.2168 396.795 30.2168 397.595 30.1498Z" fill="white"/>
<path d="M417.799 14.5521C418.799 14.0521 419.849 13.6941 420.949 13.4771C422.049 13.2601 423.141 13.2101 424.224 13.3271C425.307 13.4441 426.349 13.7271 427.349 14.1771C428.349 14.6271 429.282 15.2691 430.149 16.1021C431.016 16.9691 431.682 17.9191 432.149 18.9521C432.616 19.9851 432.949 21.1351 433.149 22.4021C433.282 23.2691 433.499 24.0691 433.799 24.8021C434.099 25.5351 434.424 26.2691 434.774 27.0021C435.124 27.7351 435.457 28.4691 435.774 29.2021C436.091 29.9351 436.349 30.7021 436.549 31.5021C436.716 32.2691 436.657 33.0101 436.374 33.7271C436.091 34.4441 435.516 34.8851 434.649 35.0521C434.149 35.1521 433.674 35.1101 433.224 34.9271C432.774 34.7441 432.366 34.4771 431.999 34.1271C431.632 33.7771 431.307 33.3941 431.024 32.9771C430.741 32.5601 430.482 32.1691 430.249 31.8021C429.482 32.8021 428.649 33.5771 427.749 34.1271C426.849 34.6771 425.766 35.0351 424.499 35.2021C423.432 35.3351 422.416 35.3691 421.449 35.3021C420.482 35.2351 419.449 35.0521 418.349 34.7521C416.916 34.3851 415.741 33.7441 414.824 32.8271C413.907 31.9101 413.207 30.8441 412.724 29.6271C412.241 28.4101 411.982 27.1021 411.949 25.7021C411.916 24.3021 412.082 22.9191 412.449 21.5521C412.916 19.7521 413.616 18.2851 414.549 17.1521C415.482 16.0191 416.566 15.1521 417.799 14.5521ZM419.049 20.4021C418.582 20.8691 418.216 21.4191 417.949 22.0521C417.682 22.6851 417.524 23.3521 417.474 24.0521C417.424 24.7521 417.482 25.4521 417.649 26.1521C417.816 26.8521 418.082 27.4691 418.449 28.0021C418.782 28.4691 419.349 28.8601 420.149 29.1771C420.949 29.4941 421.782 29.6851 422.649 29.7521C423.649 29.8191 424.524 29.5521 425.274 28.9521C426.024 28.3521 426.591 27.5941 426.974 26.6771C427.357 25.7601 427.532 24.7771 427.499 23.7271C427.466 22.6771 427.182 21.7191 426.649 20.8521C426.249 20.2191 425.724 19.7521 425.074 19.4521C424.424 19.1521 423.732 18.9941 422.999 18.9771C422.266 18.9601 421.541 19.0771 420.824 19.3271C420.107 19.5771 419.516 19.9351 419.049 20.4021Z" fill="white"/>
<path d="M450.645 24.1C451.378 24.867 451.92 25.425 452.27 25.775C452.62 26.125 452.87 26.383 453.02 26.55C453.17 26.717 453.278 26.817 453.345 26.85C453.412 26.883 453.528 26.983 453.695 27.15C453.862 27.317 454.128 27.575 454.495 27.925C454.862 28.275 455.412 28.833 456.145 29.6C456.745 30.2 457.237 30.892 457.62 31.675C458.003 32.458 457.962 33.3 457.495 34.2C457.228 34.667 456.928 34.992 456.595 35.175C456.262 35.358 455.903 35.433 455.52 35.4C455.137 35.367 454.737 35.25 454.32 35.05C453.903 34.85 453.495 34.6 453.095 34.3C452.328 33.733 451.595 33.075 450.895 32.325C450.195 31.575 449.628 31 449.195 30.6C448.895 30.3 448.712 30.1 448.645 30C448.578 29.933 448.512 29.875 448.445 29.825C448.378 29.775 448.312 29.717 448.245 29.65C448.012 29.417 447.762 29.183 447.495 28.95C447.228 28.717 446.962 28.467 446.695 28.2V30.15C446.695 30.517 446.712 30.783 446.745 30.95C446.745 31.283 446.728 31.533 446.695 31.7C446.595 32.067 446.545 32.417 446.545 32.75C446.512 32.917 446.478 33.075 446.445 33.225C446.412 33.375 446.362 33.533 446.295 33.7C446.262 33.767 446.237 33.817 446.22 33.85C446.203 33.883 446.195 33.933 446.195 34C446.162 34.067 446.078 34.233 446.045 34.3C445.878 34.633 445.612 34.95 445.245 35.25C444.612 35.617 443.828 35.717 442.895 35.55C442.395 35.45 442.012 35.267 441.745 35C441.445 34.8 441.245 34.517 441.145 34.15C441.078 33.983 441.02 33.808 440.97 33.625C440.92 33.442 440.862 33.267 440.795 33.1C440.728 32.933 440.695 32.775 440.695 32.625V3.19998C440.695 2.99998 440.712 2.80001 440.745 2.60001C440.778 2.40001 440.82 2.20799 440.87 2.02499C440.92 1.84199 440.978 1.667 441.045 1.5C441.178 1.167 441.345 0.899997 441.545 0.699997C441.712 0.532997 441.887 0.407997 442.07 0.324997C442.253 0.241997 442.428 0.166991 442.595 0.0999908C442.762 0.0669908 442.953 0.0419939 443.17 0.0249939C443.387 0.0079939 443.595 0 443.795 0C444.262 0 444.728 0.132994 445.195 0.399994C445.628 0.699994 445.945 1.08299 446.145 1.54999C446.412 2.18299 446.545 2.79999 446.545 3.39999C446.578 3.73299 446.612 4.24199 446.645 4.92499C446.678 5.60799 446.695 6.11698 446.695 6.44998V6.64999C446.728 7.74999 446.745 8.79999 446.745 9.79999V13.05C446.712 14.217 446.695 15.325 446.695 16.375V20.05C446.962 19.783 447.228 19.533 447.495 19.3C447.762 19.067 448.012 18.817 448.245 18.55C448.378 18.45 448.512 18.333 448.645 18.2L449.195 17.65C449.628 17.217 450.195 16.625 450.895 15.875C451.595 15.125 452.328 14.467 453.095 13.9C453.928 13.3 454.737 12.933 455.52 12.8C456.303 12.667 456.962 13.067 457.495 14C457.962 14.9 458.003 15.742 457.62 16.525C457.237 17.308 456.745 18.033 456.145 18.7C455.412 19.467 454.862 20.025 454.495 20.375C454.128 20.725 453.862 20.975 453.695 21.125C453.528 21.275 453.412 21.367 453.345 21.4C453.278 21.433 453.17 21.525 453.02 21.675C452.87 21.825 452.62 22.075 452.27 22.425C451.92 22.775 451.378 23.333 450.645 24.1Z" fill="white"/>
<path d="M466.1 12.9975C467.2 12.4645 468.35 12.0805 469.55 11.8475C470.75 11.6145 471.942 11.5645 473.125 11.6975C474.308 11.8305 475.458 12.1475 476.575 12.6475C477.692 13.1475 478.717 13.8475 479.65 14.7475C480.417 15.5145 481.083 16.4395 481.65 17.5225C482.217 18.6055 482.633 19.6645 482.9 20.6975C483.467 22.5305 483.55 24.3805 483.15 26.2475C482.75 28.1145 482.067 29.8475 481.1 31.4475C480.633 32.1805 480.058 32.8395 479.375 33.4225C478.692 34.0055 477.967 34.4805 477.2 34.8475C476.2 35.3145 475.117 35.6395 473.95 35.8225C472.783 36.0055 471.65 36.0475 470.55 35.9475C468.55 35.8475 466.792 35.3475 465.275 34.4475C463.758 33.5475 462.542 32.3975 461.625 30.9975C460.708 29.5975 460.108 28.0055 459.825 26.2225C459.542 24.4395 459.65 22.6145 460.15 20.7475C460.683 18.7475 461.458 17.1225 462.475 15.8725C463.492 14.6225 464.7 13.6645 466.1 12.9975ZM467.6 19.6975C467.1 20.1645 466.717 20.7475 466.45 21.4475C466.183 22.1475 466.017 22.8725 465.95 23.6225C465.883 24.3725 465.942 25.1225 466.125 25.8725C466.308 26.6225 466.6 27.2975 467 27.8975C467.333 28.3975 467.933 28.8145 468.8 29.1475C469.667 29.4805 470.567 29.6805 471.5 29.7475C472.567 29.8145 473.5 29.5225 474.3 28.8725C475.1 28.2225 475.708 27.4145 476.125 26.4475C476.542 25.4805 476.733 24.4305 476.7 23.2975C476.667 22.1645 476.367 21.1305 475.8 20.1975C475.4 19.5305 474.842 19.0395 474.125 18.7225C473.408 18.4055 472.658 18.2395 471.875 18.2225C471.092 18.2055 470.317 18.3225 469.55 18.5725C468.783 18.8225 468.133 19.1975 467.6 19.6975Z" fill="white"/>
<path d="M3.125 12.7734C3.125 12.7734 10.485 18.7734 14.125 18.7734C17.765 18.7734 21.605 12.7734 24.965 12.7734C28.325 12.7734 30.845 18.7734 34.205 18.7734C37.565 18.7734 45.125 12.7734 45.125 12.7734" stroke="white" stroke-width="6.25" stroke-miterlimit="1.5" stroke-linecap="round" stroke-linejoin="round"/>
<path d="M3.125 31.7734H45.125" stroke="white" stroke-width="6.25" stroke-miterlimit="1.5" stroke-linecap="round" stroke-linejoin="round"/>
</svg>
